<svg  height="100%" width="100%" viewBox="0 0 70 31" fill="none" xmlns="http://www.w3.org/2000/svg">
<path d="M27.4619 0.549316C26.2542 -0.183105 24.2966 -0.183105 23.0889 0.549316L0.912579 13.9978C0.837215 14.0435 0.765716 14.0915 0.698082 14.1419C0.676825 14.1571 0.659434 14.1735 0.638178 14.1899C0.597597 14.2228 0.557016 14.2544 0.518368 14.2884C0.491314 14.313 0.468125 14.3388 0.443004 14.3634C0.41595 14.3903 0.388896 14.4173 0.363775 14.4454C0.338653 14.4735 0.317397 14.5017 0.296141 14.531C0.274884 14.5579 0.253628 14.5837 0.234304 14.6106C0.213047 14.6411 0.197588 14.6716 0.180197 14.702C0.164737 14.729 0.147346 14.756 0.133819 14.7829C0.116428 14.8169 0.104833 14.8509 0.0913061 14.8837C0.0816441 14.9095 0.0700489 14.9341 0.0603869 14.9599C0.0449276 15.0044 0.035266 15.0489 0.0275363 15.0935C0.0236715 15.1099 0.0198072 15.1251 0.0159424 15.1415C-0.00531412 15.2669 -0.00531412 15.3935 0.0159424 15.5188C0.0178748 15.5259 0.0198069 15.5329 0.0217393 15.5399C0.0314014 15.5938 0.0449281 15.6478 0.0623197 15.7005C0.0681169 15.7157 0.0758463 15.731 0.0816435 15.7462C0.0990352 15.7907 0.116427 15.8353 0.137683 15.8786C0.145413 15.8938 0.155075 15.9091 0.164737 15.9255C0.187926 15.9677 0.213048 16.011 0.242034 16.0532C0.251696 16.0661 0.261358 16.0778 0.27102 16.0907C0.303871 16.1341 0.336722 16.1774 0.373437 16.2196C0.381167 16.2278 0.390829 16.236 0.398558 16.2442C0.439139 16.2888 0.483584 16.3333 0.529962 16.3767C0.533827 16.3802 0.537693 16.3837 0.541557 16.3872C0.64784 16.4821 0.769581 16.5724 0.906782 16.6556L23.0927 30.1099C23.6957 30.4755 24.4879 30.6595 25.2783 30.6595C26.0687 30.6595 26.8609 30.4767 27.4639 30.1099C28.6716 29.3774 28.6716 28.1903 27.4639 27.4579L10.5553 17.204H66.9081C68.6164 17.204 70 16.3649 70 15.329C70 14.2931 68.6164 13.454 66.9081 13.454H10.5553L27.4619 3.2001C28.6697 2.46885 28.6697 1.28174 27.4619 0.549316Z" fill="#333333"/>
</svg>
